<?xml version="1.0" standalone="no"?>
<!DOCTYPE svg PUBLIC "-//W3C//DTD SVG 1.1//EN" "http://www.w3.org/Graphics/SVG/1.1/DTD/svg11.dtd" >
<!--
2013-9-30: Created.
-->
<svg>
<metadata>
Created by iconfont
</metadata>
<defs>

<font id="iconfont" horiz-adv-x="1024" >
  <font-face
    font-family="iconfont"
    font-weight="500"
    font-stretch="normal"
    units-per-em="1024"
    ascent="896"
    descent="-128"
  />
    <missing-glyph />
    
    <glyph glyph-name="time" unicode="&#58880;" d="M511.634024-212C229.832738-212 0 17.832738 0 300.365976c0 136.874911 53.432452 264.966405 150.050036 361.583989 5.855611 5.855611 13.907076 9.515368 21.958542 9.515368 8.051465 0 16.102931-2.927806 21.958542-8.783417 12.443174-12.443174 12.443174-32.205861 0-43.917084-84.906362-84.906362-131.751251-197.626876-131.751251-317.666905 0-248.131523 201.286633-449.418156 449.418156-449.418156s449.418156 201.286633 449.418156 449.418156c0 237.884203-182.987848 432.583274-417.944246 448.686204l0-147.854182c0-17.566833-13.907076-31.47391-31.47391-31.47391-17.566833 0-31.47391 13.907076-31.47391 31.47391L480.160114 812l31.47391 0c136.874911 0 264.966405-53.432452 361.583989-150.050036s150.050036-225.441029 150.050036-361.583989C1024 17.832738 794.167262-212 511.634024-212zM551.891351 183.985704 551.891351 183.985704c-19.030736 0-36.59757 7.319514-50.504646 21.22659-24.154396 24.154396-202.750536 283.997141-210.07005 294.976412l-33.669764 49.772695 49.772695-33.669764c10.979271-7.319514 271.553967-185.915654 294.976412-210.07005 13.175125-13.175125 21.22659-31.47391 21.22659-50.504646 0-19.030736-7.319514-36.59757-21.22659-50.504646C589.220872 191.305218 570.922087 183.985704 551.891351 183.985704z"  horiz-adv-x="1024" />

    
    <glyph glyph-name="icon" unicode="&#58896;" d="M684.327322 628.392126c10.295484 0 20.419052-0.780783 30.601972-1.898233C687.515944 754.152365 551.073412 848.97601 395.27095 848.97601c-174.151365 0-316.802296-118.652354-316.802296-269.418103 0-86.992283 47.438429-158.431336 126.767172-213.925231l-31.665187-95.272877 110.765733 55.494918c39.60809-7.776104 71.383794-15.833617 110.935602-15.833617 9.956769 0 19.804045 0.447185 29.538757 1.172709-6.154163 21.204951-9.788947 43.35953-9.788947 66.462714C415.074995 516.062781 533.898241 628.392126 684.327322 628.392126L684.327322 628.392126zM514.039961 714.266959c23.943318 0 39.663348-15.72003 39.663348-39.552831 0-23.717168-15.717983-39.60809-39.663348-39.60809-23.667026 0-47.495734 15.889899-47.495734 39.60809C466.544227 698.602188 490.317677 714.266959 514.039961 714.266959L514.039961 714.266959zM292.337603 635.107061c-23.77652 0-47.721885 15.889899-47.721885 39.60809 0 23.832801 23.944342 39.552831 47.721885 39.552831 23.772426 0 39.552831-15.664771 39.552831-39.552831C331.891458 650.99696 316.111053 635.107061 292.337603 635.107061L292.337603 635.107061zM973.550493 381.462201c0 126.655631-126.766149 229.870388-269.14181 229.870388-150.761656 0-269.419126-103.271038-269.419126-229.870388 0-126.991276 118.712729-229.866295 269.419126-229.866295 31.55467 0 63.383586 7.887644 95.05082 15.8285l86.87665-47.659463-23.832801 79.209016C926.110017 246.755196 973.550493 310.024172 973.550493 381.462201L973.550493 381.462201zM617.027543 421.126572c-15.717983 0-31.66314 15.663748-31.66314 31.665187 0 15.775288 15.945157 31.659047 31.66314 31.659047 24.056905 0 39.665395-15.884782 39.665395-31.659047C656.691915 436.79032 641.083425 421.126572 617.027543 421.126572L617.027543 421.126572zM791.289426 421.126572c-15.608489 0-31.492248 15.663748-31.492248 31.665187 0 15.775288 15.830547 31.659047 31.492248 31.659047 23.832801 0 39.664372-15.884782 39.664372-31.659047C830.952774 436.79032 815.122227 421.126572 791.289426 421.126572L791.289426 421.126572z"  horiz-adv-x="1024" />

    
    <glyph glyph-name="folder" unicode="&#59694;" d="M853.216 648.416l-443.552 0 0 17.056c0 37.696-30.56 68.256-68.256 68.256l-170.592 0c-37.696 0-68.224-30.56-68.224-68.256l0-562.976c0-37.696 30.56-68.256 68.224-68.256l682.4 0c37.696 0 68.256 30.56 68.256 68.256l0 477.696c0 37.696-30.56 68.256-68.256 68.256zM136.672 665.504c0 18.816 15.328 34.112 34.112 34.112l170.592 0c18.816 0 34.112-15.296 34.112-34.112l0-51.168 477.696 0c18.816 0 34.112-15.296 34.112-34.112l0-34.112-750.624 0 0 119.424zM853.216 68.384l-682.4 0c-18.816 0-34.112 15.328-34.112 34.112l0 409.44 750.624 0 0-409.44c0-18.816-15.328-34.112-34.112-34.112z"  horiz-adv-x="1024" />

    
    <glyph glyph-name="gift" unicode="&#59086;" d="M169.821757 303.060573c2.096754-0.045025 4.194532-0.12996 6.291287-0.12996 104.963587-0.00614 209.928197-0.005117 314.891783-0.005117 2.090615 0 4.181229 0 7.065929 0 0-2.450818 0-4.63967 0-6.829546 0-96.889701-0.002047-193.779402 0.01535-290.669102 0-2.246157 0.224104-4.492314 0.342808-6.739495-97.580432 0-195.160865 0-292.741297 0-1.198292 0.382717-2.384303 0.814552-3.597945 1.140986-15.930831 4.28049-26.288736 14.274098-30.93557 30.134321-0.448208 1.528819-0.88823 3.060709-1.331321 4.591575C169.821757 124.054643 169.821757 213.557096 169.821757 303.060573zM530.417465-1.313669c0.076748 2.093684 0.220011 4.186346 0.220011 6.28003 0.011256 97.710392 0.00921 195.420785 0.00921 293.131177 0 2.055822 0 4.111644 0 6.723122 2.567475 0 4.617158 0 6.66684 0 101.586676 0 203.172329-0.002047 304.759005 0.007163 4.680603 0 9.362228 0.110517 14.042831 0.169869 0-89.502453 0-179.004907 0-268.50736-0.321318-1.062192-0.735757-2.105964-0.950651-3.188622-3.458775-17.457604-14.029528-28.303626-30.895661-33.326013-1.348718-0.401136-2.680039-0.858554-4.019547-1.289366C723.639165-1.313669 627.028826-1.313669 530.417465-1.313669zM169.821757 534.733003c0.332575 0.896416 0.771573 1.768273 0.981351 2.692319 4.476965 19.684318 20.87033 33.012881 41.155329 32.956599 35.359322-0.098237 70.716598-0.599657 106.075921-0.638543 57.980529-0.065492 115.962082 0.103354 173.943634 0.173962 1.914606 0.002047 3.829212 0 6.092765 0 0-3.254114 0-6.098905 0-8.944719 0-73.163323-0.057305-146.32767 0.12382-219.490993 0.01228-5.051039-1.440815-6.097882-6.226818-6.091742-105.142665 0.134053-210.285331 0.105401-315.427996 0.083911-2.240017 0-4.479011-0.276293-6.719028-0.424672C169.821757 401.610076 169.821757 468.171028 169.821757 534.733003zM856.116385 335.048101c-2.240017 0.147356-4.480035 0.423649-6.720052 0.424672-103.870696 0.021489-207.741391 0.01842-311.61311 0.01842-2.212388 0-4.424776 0-6.882757 0 0 78.305437 0 155.937538 0 234.139621 2.24718 0.134053 4.420683 0.37453 6.594185 0.378623 77.376275 0.150426 154.75255 0.281409 232.128825 0.407276 14.537088 0.023536 29.075199 0.118704 43.612287-0.014326 21.926382-0.199545 37.84084-13.680581 42.040489-35.360346 0.150426-0.774643 0.554632-1.499144 0.840134-2.248204C856.116385 466.878592 856.116385 400.963347 856.116385 335.048101zM510.406712 665.147238c13.673417 14.131859 26.934442 28.034497 40.419572 41.7161 11.791557 11.963473 23.630187 23.8942 35.804461 35.4637 49.619094 47.155996 132.044362 22.88215 147.634432-43.697221 7.05058-30.110785-0.668219-56.935734-21.4925-79.792301-6.084579-6.678096-12.724813-12.854772-19.211551-19.156292-1.074472-1.043772-2.663666-2.188852-4.027733-2.205225-13.537318-0.163729-27.076682-0.099261-41.798988-0.099261 1.710968 1.841951 2.777253 3.075035 3.930519 4.220115 12.83533 12.749372 25.761734 25.40767 38.508036 38.245046 16.930601 17.052374 21.405519 41.506323 11.741415 63.040778-9.487072 21.138436-31.565926 34.678824-54.952566 33.391505-15.145955-0.833995-27.944446-6.998391-38.705534-17.709337-31.252795-31.109532-62.602803-62.121849-93.883227-93.202729-1.136893-1.12973-1.955538-2.579755-3.25616-4.328585-1.978051 1.87572-3.234671 3.0208-4.441149 4.217045-31.428803 31.16172-62.797231 62.384839-94.298689 93.472881-18.776645 18.530029-44.821835 22.826891-67.286476 11.411911-34.158984-17.358343-41.665958-62.415538-14.82566-89.799212 12.43624-12.687974 25.174356-25.080212 37.82549-37.557384 1.674129-1.651616 3.638877-3.00852 5.469572-4.502547-0.302899-0.468674-0.604774-0.936325-0.907673-1.404999-11.230786 0-22.49227 0.500397-33.683147-0.173962-7.610328-0.458441-13.105482 1.781576-18.076704 7.450692-6.479575 7.391341-14.347776 13.636578-20.358677 21.355377-40.72861 52.300156-9.787924 129.814578 55.772234 139.944286 30.481222 4.709255 56.796564-4.072759 78.730109-25.764803 23.544229-23.284309 47.025013-46.633087 70.538543-69.948095C506.708484 668.60806 507.890402 667.531542 510.406712 665.147238z"  horiz-adv-x="1024" />

    
    <glyph glyph-name="star" unicode="&#58939;" d="M793.490046-53.181991 511.428995 152.137235 229.368968-53.181991l114.072035 335.980078L63.451124 488.120382l335.986217 0L511.428995 822.030311l111.992677-333.909929 335.986217 0L679.418011 282.798087 793.490046-53.181991zM511.428995 193.616952l215.693504-159.699212-85.029582 261.32375 217.763652 159.695119L598.538959 454.936609l-87.10894 263.394922-87.10894-263.394922L163.002444 454.936609 380.766097 295.242514l-85.029582-261.32375L511.428995 193.616952z"  horiz-adv-x="1024" />

    
    <glyph glyph-name="weibo" unicode="&#58940;" d="M437.248 423.594667c-131.072-6.144-237.226667-76.458667-237.226667-163.84 0-87.381333 106.154667-153.258667 237.226667-147.114667 131.072 6.144 237.568 88.064 237.568 175.786667C674.816 375.466667 568.661333 429.738667 437.248 423.594667L437.248 423.594667 437.248 423.594667zM526.677333 203.093333c-40.277333-51.882667-119.466667-77.141333-196.949333-35.498667C293.205333 187.733333 294.570667 226.986667 294.570667 226.986667s-15.36 123.562667 116.736 138.922667C543.402667 381.269333 566.954667 254.976 526.677333 203.093333L526.677333 203.093333 526.677333 203.093333zM438.272 286.037333c-8.533333-6.144-10.24-17.749333-5.461333-25.258667 4.437333-7.509333 14.677333-8.192 22.869333-2.048 8.192 6.485333 11.264 17.749333 6.826667 25.258667C458.069333 291.157333 448.170667 293.205333 438.272 286.037333L438.272 286.037333 438.272 286.037333zM375.808 268.970667c-24.576-2.389333-42.325333-23.893333-42.325333-44.714667 0-20.48 19.797333-34.816 44.373333-31.744 24.576 2.730667 44.373333 21.845333 44.373333 42.325333C422.570667 255.317333 404.138667 271.701333 375.808 268.970667L375.808 268.970667 375.808 268.970667zM845.824 860.16 181.248 860.16c-80.213333 0-145.408-65.194667-145.408-145.408l0-664.234667c0-80.213333 65.194667-145.408 145.408-145.408l664.234667 0c80.213333 0 145.408 65.194667 145.408 145.408L990.890667 714.752C991.232 794.965333 926.037333 860.16 845.824 860.16L845.824 860.16 845.824 860.16zM791.893333 230.058667c-53.930667-114.688-232.448-170.666667-364.544-160.426667-125.610667 9.898667-287.061333 51.541333-303.786667 203.434667 0 0-8.874667 68.949333 58.026667 157.696 0 0 95.914667 134.144 207.530667 172.373333 111.957333 37.888 124.928-26.282667 124.928-64.512-5.802667-32.426667-17.066667-51.2 24.917333-38.229333 0 0 109.909333 50.858667 155.306667 5.802667 36.522667-36.522667 6.144-86.698667 6.144-86.698667s-15.018667-16.725333 16.042667-22.869333C747.861333 390.485333 846.165333 345.088 791.893333 230.058667L791.893333 230.058667 791.893333 230.058667zM683.690667 547.498667c-11.946667 0-21.504 9.557333-21.504 21.504 0 11.946667 9.557333 21.845333 21.504 21.845333 0 0 134.826667 24.917333 118.784-119.808 0-0.682667 0-1.365333-0.341333-2.389333-1.365333-10.24-10.581333-18.090667-21.162667-18.090667-11.946667 0-21.845333 9.557333-21.845333 21.504C759.125333 472.064 780.288 568.661333 683.690667 547.498667L683.690667 547.498667 683.690667 547.498667zM911.36 431.445333 911.36 431.445333c-3.754667-24.576-16.042667-26.624-30.378667-26.624-17.408 0-31.402667 10.922667-31.402667 28.330667 0 15.018667 6.144 30.378667 6.144 30.378667 1.706667 6.485333 16.384 45.738667-9.557333 104.448-47.786667 80.554667-144.384 81.578667-155.989333 77.141333-11.605333-4.437333-28.330667-6.826667-28.330667-6.826667-17.408 0-31.402667 14.336-31.402667 31.402667 0 14.336 9.557333 26.624 22.869333 30.378667 0 0 0.341333 0.341333 0.682667 0.682667 1.024 0.341333 2.048 1.024 3.072 1.365333 13.312 2.730667 61.44 11.946667 107.861333 1.024C848.554667 683.690667 962.901333 603.136 911.36 431.445333L911.36 431.445333 911.36 431.445333zM911.36 431.445333"  horiz-adv-x="1024" />

    
    <glyph glyph-name="star1" unicode="&#59201;" d="M0 512 1024 512 192-128 512 896 832-128Z"  horiz-adv-x="1024" />

    
    <glyph glyph-name="arrow" unicode="&#58935;" d="M266.105054 359.598636l450.178977-476.874419A29.767442 29.767442 0 0 1 759.573829-76.403101L309.398822 400.471318a29.767442 29.767442 0 0 1-43.293768-40.868713zM715.363225 882.858667L265.184248 405.984248a29.767442 29.767442 0 0 1 43.293768-40.868713l450.175007 476.874418a29.767442 29.767442 0 1 1-43.289798 40.868714z"  horiz-adv-x="1024" />

    
    <glyph glyph-name="toggle" unicode="&#58908;" d="M0-128v148.041143h1170.285714V-128H0z m0 582.948571h1170.285714v-148.041142H0V454.948571zM0 896h1170.285714v-148.041143H0V896z"  horiz-adv-x="1170" />

    
    <glyph glyph-name="icons-" unicode="&#58997;" d="M316.099285 578.96132c-19.833721 0-39.850613-13.108552-39.850614-33.010834 0-19.85521 20.016893-33.125445 39.850614-33.125445 19.833721 0 33.034371 13.270235 33.03437 33.125445 0 19.901259-13.20065 33.010835-33.03437 33.010834zM587.364455 387.00852c-13.176091 0-26.467815-13.270235-26.467815-26.467815 0-13.382798 13.291724-26.467815 26.467815-26.467814 20.016893 0 33.123398 13.085016 33.123398 26.467814 0 13.19758-13.106506 26.467815-33.123398 26.467815zM954.136839 696.51976c0 74.852802-60.666708 135.51951-135.51951 135.519509h-619.116622c-74.852802 0-135.518486-60.666708-135.518487-135.519509v-619.116623c0-74.852802 60.665685-135.51951 135.518487-135.51951h619.116622c74.852802 0 135.51951 60.666708 135.51951 135.51951v619.116623z m-552.069601-455.255625c-33.031301 0-59.591213 6.748704-92.693122 13.291724l-92.510973-46.393633 26.467815 79.608106c-66.25089 46.302559-105.895819 105.963357-105.895819 178.663122 0 125.909641 119.164007 225.054709 264.631076 225.054709 130.119523 0 244.110717-79.219249 267.011286-185.845709-8.41874 0.937348-16.906042 1.555425-25.484417 1.555426-125.703957 0-224.987171-93.815689-224.987171-209.429847 0-19.23918 2.996241-37.768185 8.165984-55.451939-8.163937-0.639566-16.400528-1.051959-24.704659-1.051959z m390.358569-92.695169l19.902283-66.134233-72.585156 39.759539c-26.467815-6.634094-53.05024-13.291724-79.403444-13.291724-125.909641 0-225.078245 86.059028-225.078245 192.043874 0 105.801674 99.168604 192.045921 225.078245 192.045921 118.910227 0 224.780463-86.244246 224.780463-192.045921-0.001023-59.682287-39.575344-112.526843-92.694146-152.377456zM732.923622 387.00852c-13.085016 0-26.282596-13.270235-26.282597-26.467815 0-13.382798 13.19758-26.467815 26.282597-26.467814 19.833721 0 33.125445 13.085016 33.125445 26.467814 0 13.19758-13.290701 26.467815-33.125445 26.467815zM501.30338 512.825041c19.925818 0 33.125445 13.270235 33.125445 33.125445 0 19.902282-13.20065 33.010835-33.125445 33.010834-19.831674 0-39.733956-13.108552-39.733956-33.010834 0-19.85521 19.902282-33.125445 39.733956-33.125445z"  horiz-adv-x="1024" />

    
    <glyph glyph-name="X" unicode="&#59275;" d="M941.576 711.752l-101.824 101.824L512 485.824 184.248 813.576 82.424 711.752 410.168 384l-327.744-327.752 101.824-101.824L512 282.176l327.752-327.752 101.824 101.824L613.832 384z"  horiz-adv-x="1024" />

    
    <glyph glyph-name="xiajiantou" unicode="&#59804;" d="M512.513188-128L2.222109 382.291079H308.397371v510.292102h408.233681v-510.291079h306.175261l-510.293125-510.292102z"  horiz-adv-x="1024" />

    
    <glyph glyph-name="jinlingyingcaiwangtubiao24" unicode="&#58900;" d="M825.776 786.192c6.432 7.5840000000000005 5.472 18.96-2.112 25.368-7.608 6.432-18.96 5.472-25.368-2.112L513.032 472.08 227.096 808.8720000000001C220.64 816.456 209.336 817.3679999999999 201.728 810.9359999999999 194.144 804.504 193.20799999999997 793.152 199.64000000000004 785.568l294.216-346.536 0-51.336-211.248 0c-9.936 0-18-8.064-18-18s8.064-18 18-18l211.248 0 0-159.57600000000002-211.248 0c-9.936 0-18-8.064-18-18s8.064-18 18-18l211.248 0 0-185.92800000000003c0-9.936 8.064-18 18-18s18 8.064 18 18l0 185.92800000000003 211.248 0c9.936 0 18 8.064 18 18s-8.064 18-18 18l-211.248 0 0 159.57600000000002 211.248 0c9.936 0 18 8.064 18 18s-8.064 18-18 18l-211.248 0 0 48.528L825.776 786.192z"  horiz-adv-x="1024" />

    
    <glyph glyph-name="xiajiantou-copy-copy-copy-copy" unicode="&#58881;" d="M769.88568462 177.63323904000003L542.27100558-49.98144001000003c-4.07494314-5.12278528-9.31415609-9.19772843-15.60121003-11.52626687-0.46570723-0.11642653-0.69856142-0.23285419-1.04784326-0.23285419-3.72566243-1.62997703-7.80060558-2.21211193-11.75912107-2.44496612-0.58213491 0-1.16426978-0.46570723-1.7464047-0.46570723-1.04784214 0-1.97925774 0.69856142-3.14352753 0.69856143-2.44496611 0.23285419-4.77350457 0.69856142-7.2184707 1.5135505-2.91067335 0.69856142-5.47206599 1.97925774-8.03345862 3.25995406-1.51355051 0.81498909-3.02710101 1.97925774-4.54065152 3.02710102-1.28069632 1.04784213-2.91067334 1.51355051-4.19136967 2.91067335L254.23074304 177.63323904000003c-14.90264861 14.90264861-14.90264861 39.00302678 0 53.67282234 14.78622208 14.90264861 38.88660025 14.90264862 53.90567538-1e-8L474.16124302 65.39766328999997 474.16124302 435.51892366c0 21.18970368 17.23118819 38.65374606 38.42089188 38.65374607s38.42089187-17.34761471 38.42089188-38.65374607l-1e-8-368.95699056 164.97698134 164.74412827c14.66979555 14.90264862 38.88660025 14.90264862 53.78924885 1e-8 14.90264862-14.66979555 14.90264862-38.77017259 0.11642766-53.67282234zM512.34928073 576.39552797c-21.18970368 0-38.42089187 17.23118819-38.42089189 38.42089187 0 21.07327716 17.11476053 38.42089187 38.42089187 38.42089186s38.42089187-17.23118819 38.42089189-38.42089187c0.11642653-21.18970368-17.11476053-38.42089187-38.42089187-38.42089186z m-2e-8 179.41392269c-21.18970368 0-38.42089187 17.11476053-38.42089188 38.42089187 0 21.18970368 17.11476053 38.42089187 38.42089188 38.42089188s38.42089187-17.23118819 38.42089188-38.42089187c0.11642653-21.30613134-17.11476053-38.42089187-38.42089188-38.42089188z m0 0"  horiz-adv-x="1024" />

    
    <glyph glyph-name="page-down" unicode="&#58895;" d="M538.33955555 700.87111111l286.37866667-286.37866666c9.78488889-9.78488889 9.78488889-25.6 0-35.3848889L538.33955555 92.61511111000004c-9.78488889-9.78488889-25.6-9.78488889-35.38488889 0-9.78488889 9.78488889-9.78488889 25.6 0 35.38488889l268.74311112 268.74311111-268.74311112 268.74311111c-9.78488889 9.78488889-9.78488889 25.6 0 35.38488889 9.78488889 9.78488889 25.6 9.78488889 35.38488889 0zM333.53955555 700.87111111l286.37866667-286.37866666c9.78488889-9.78488889 9.78488889-25.6 0-35.3848889L333.53955555 92.61511111000004c-9.78488889-9.78488889-25.6-9.78488889-35.38488889 0-9.78488889 9.78488889-9.78488889 25.6 0 35.38488889l268.74311112 268.74311111-268.74311112 268.74311111c-9.78488889 9.78488889-9.78488889 25.6 0 35.38488889 9.78488889 9.78488889 25.6 9.78488889 35.38488889 0z"  horiz-adv-x="1024" />

    
    <glyph glyph-name="page-up" unicode="&#58897;" d="M541.86666667 700.87111111L255.488 414.49244445c-9.78488889-9.78488889-9.78488889-25.6 0-35.3848889L541.86666667 92.61511111000004c9.78488889-9.78488889 25.6-9.78488889 35.38488889 0 9.78488889 9.78488889 9.78488889 25.6 0 35.38488889L308.50844445 396.74311111l268.74311111 268.74311111c9.78488889 9.78488889 9.78488889 25.6 0 35.38488889-9.78488889 9.78488889-25.6 9.78488889-35.38488889 0zM746.66666667 700.87111111L460.288 414.49244445c-9.78488889-9.78488889-9.78488889-25.6 0-35.3848889L746.66666667 92.61511111000004c9.78488889-9.78488889 25.6-9.78488889 35.38488889 0 9.78488889 9.78488889 9.78488889 25.6 0 35.38488889L513.30844445 396.74311111l268.74311111 268.74311111c9.78488889 9.78488889 9.78488889 25.6 0 35.38488889-9.78488889 9.78488889-25.6 9.78488889-35.38488889 0z"  horiz-adv-x="1024" />

    
    <glyph glyph-name="dot" unicode="&#58936;" d="M512 384m-512 0a512 512 0 1 1 1024 0 512 512 0 1 1-1024 0Z"  horiz-adv-x="1024" />

    
    <glyph glyph-name="arrow1" unicode="&#59321;" d="M290.909091-87.272727a29.090909 29.090909 0 0 0-20.596364 49.570909L689.92 384l-418.909091 421.701818a29.090909 29.090909 0 0 0 41.309091 40.96l439.505455-442.181818a29.090909 29.090909 0 0 0 0-40.96l-439.505455-442.181818a28.974545 28.974545 0 0 0-21.410909-8.610909z"  horiz-adv-x="1024" />

    
    <glyph glyph-name="sanjiao-you-f" unicode="&#59369;" d="M902.55 384L121.44 896v-1024l781.11 512z"  horiz-adv-x="1024" />

    
    <glyph glyph-name="Game-Console" unicode="&#60991;" d="M803.32288 384c-6.826667 0-17.066667 3.413333-23.893333 6.826667 3.413333-6.826667 6.826667-13.653333 6.826666-23.893334s-3.413333-17.066667-6.826666-23.893333c6.826667 3.413333 13.653333 6.826667 23.893333 6.826667s17.066667-3.413333 23.893333-6.826667c-3.413333 6.826667-6.826667 17.066667-6.826666 23.893333s3.413333 17.066667 6.826666 23.893334c-6.826667-3.413333-17.066667-6.826667-23.893333-6.826667zM1011.536213 18.773333l-17.066666 58.026667c-17.066667 54.613333-10.24 136.533333 13.653333 194.56 13.653333 37.546667 20.48 78.506667 13.653333 119.466667-13.653333 92.16-88.746667 170.666667-180.906666 187.733333-68.266667 13.653333-129.706667 3.413333-180.906667-27.306667h-54.613333l-64.853334 64.853334c0 3.413333-6.826667 6.826667-10.24 6.826666 6.826667 157.013333 85.333333 238.933333 238.933334 238.933334 10.24 0 17.066667 6.826667 17.066666 17.066666s-6.826667 17.066667-17.066666 17.066667c-170.666667 0-266.24-95.573333-273.066667-273.066667-3.413333 0-10.24-3.413333-13.653333-3.413333L421.029547 554.666667h-54.613334c-51.2 34.133333-112.64 44.373333-184.32 27.306666-95.573333-20.48-167.253333-92.16-180.906666-180.906666-3.413333-37.546667 0-81.92 17.066666-119.466667 23.893333-58.026667 30.72-150.186667 13.653334-204.8l-17.066667-58.026667c-10.24-27.306667-13.653333-58.026667-13.653333-88.746666 0-30.72 27.306667-58.026667 61.44-58.026667h85.333333c34.133333 0 64.853333 17.066667 81.92 47.786667L335.696213 145.066667h351.573334l112.64-215.04c13.653333-37.546667 44.373333-58.026667 81.92-58.026667h85.333333c34.133333 0 58.026667 27.306667 61.44 58.026667-3.413333 30.72-6.826667 61.44-17.066667 88.746666zM359.589547 315.733333H274.256213v-85.333333c0-10.24-6.826667-17.066667-17.066666-17.066667h-68.266667c-10.24 0-17.066667 6.826667-17.066667 17.066667V315.733333H86.52288c-10.24 0-17.066667 6.826667-17.066667 17.066667v68.266667c0 10.24 6.826667 17.066667 17.066667 17.066666H171.856213v85.333334c0 10.24 6.826667 17.066667 17.066667 17.066666h68.266667c10.24 0 17.066667-6.826667 17.066666-17.066666V418.133333h85.333334c10.24 0 17.066667-6.826667 17.066666-17.066666v-68.266667c0-10.24-6.826667-17.066667-17.066666-17.066667z m68.266666-102.4h-34.133333c-10.24 0-17.066667 6.826667-17.066667 17.066667s6.826667 17.066667 17.066667 17.066667h34.133333c10.24 0 17.066667-6.826667 17.066667-17.066667s-6.826667-17.066667-17.066667-17.066667z m170.666667 0h-34.133333c-10.24 0-17.066667 6.826667-17.066667 17.066667s6.826667 17.066667 17.066667 17.066667h34.133333c10.24 0 17.066667-6.826667 17.066667-17.066667s-6.826667-17.066667-17.066667-17.066667z m273.066667 102.4c-6.826667 0-17.066667 3.413333-23.893334 6.826667 3.413333-6.826667 6.826667-13.653333 6.826667-23.893333 0-27.306667-23.893333-51.2-51.2-51.2s-51.2 23.893333-51.2 51.2c0 6.826667 3.413333 17.066667 6.826667 23.893333-6.826667-3.413333-17.066667-6.826667-23.893334-6.826667-27.306667 0-51.2 23.893333-51.2 51.2s23.893333 51.2 51.2 51.2c6.826667 0 17.066667-3.413333 23.893334-6.826666-3.413333 6.826667-6.826667 17.066667-6.826667 23.893333 0 27.306667 23.893333 51.2 51.2 51.2s51.2-23.893333 51.2-51.2c0-6.826667-3.413333-17.066667-6.826667-23.893333 6.826667 3.413333 13.653333 6.826667 23.893334 6.826666 27.306667 0 51.2-23.893333 51.2-51.2s-23.893333-51.2-51.2-51.2z"  horiz-adv-x="1028" />

    
    <glyph glyph-name="Arrowleft" unicode="&#59070;" d="M427.52-59.733333a17.066667 17.066667 0 0 0-15.837867 10.7008l-171.52 426.666666a17.1008 17.1008 0 0 0 0 12.731734l171.52 426.666666a17.066667 17.066667 0 0 0 31.675734-12.731733L274.397867 384l168.96-420.3008A17.066667 17.066667 0 0 0 427.52-59.733333zM768-59.733333H597.333333c-6.980267 0-13.2608 4.266667-15.854933 10.752l-169.8304 426.666666a17.134933 17.134933 0 0 0 0 12.612267l169.8304 426.666667A17.066667 17.066667 0 0 0 597.333333 827.733333h170.666667a17.083733 17.083733 0 0 0 15.854933-23.3984L615.714133 384l168.1408-420.334933A17.066667 17.066667 0 0 0 768-59.733333z m-159.0784 34.133333h133.888l-161.314133 403.2512a17.134933 17.134933 0 0 0 0 12.680533L742.792533 793.6h-133.888l-163.037866-409.6 163.054933-409.6z"  horiz-adv-x="1024" />

    
    <glyph glyph-name="Arrowright" unicode="&#59072;" d="M596.48-59.733333a17.066667 17.066667 0 0 0-15.837867 23.432533L749.602133 384l-168.96 420.3008a17.066667 17.066667 0 1 0 31.675734 12.731733l171.52-426.666666a16.9472 16.9472 0 0 0 0-12.731734l-171.52-426.666666a17.066667 17.066667 0 0 0-15.837867-10.7008zM426.666667-59.733333H256a17.083733 17.083733 0 0 0-15.854933 23.3984L408.285867 384 240.145067 804.317867A17.066667 17.066667 0 0 0 256 827.733333h170.666667a17.066667 17.066667 0 0 0 15.854933-10.752l169.813333-426.666666a16.964267 16.964267 0 0 0 0-12.612267l-169.813333-426.666667A17.0496 17.0496 0 0 0 426.666667-59.733333z m-145.4592 34.133333h133.888l163.0208 409.6-163.0208 409.6h-133.888l161.314133-403.2512c1.621333-4.078933 1.621333-8.6016 0-12.680533L281.207467-25.6z"  horiz-adv-x="1024" />

    
    <glyph glyph-name="logo-game-controller-b" unicode="&#58991;" d="M270.2 486.8c-21.4 0-38.6-17.4-38.6-38.8s17.4-38.8 38.6-38.8c21.2 0 38.6 17.4 38.6 38.8s-17.2 38.8-38.6 38.8zM932.6 398.2c-42.4 177-87.2 271-177 297.6-19.6 5.8-36.2 8-51.4 8-55.2 0-93.8-29.4-192.2-29.4-98.4 0-137 29.4-192.2 29.4-15.4 0-32-2.2-51.4-8-89.8-26.6-134.6-120.8-177-297.6-42.4-177-34.6-304.8 15.4-328.6 8.2-3.8 16.4-5.6 25-5.6 43.4 0 90.2 47.6 135.4 104 51.4 64.2 64.2 66 220.6 66h48.6c156.2 0 169.2-1.6 220.6-66 45-56.4 92-104 135.4-104 8.4 0 16.8 1.8 25 5.6 49.8 24 57.4 151.8 15.2 328.6z m-662.2-29.4c-43.2 0-78.4 35.6-78.4 79.2s35.2 79.2 78.4 79.2c43.4 0 78.4-35.6 78.4-79.2 0.2-43.8-35-79.2-78.4-79.2z m345.8 39c-22.2 0-40.2 18-40.2 40.2 0 22.2 18 40.2 40.2 40.2 22.2 0 40.2-18 40.2-40.2 0-22.2-18-40.2-40.2-40.2zM704 320c-22.2 0-40.2 18-40.2 40 0 22.4 18 40.2 40.2 40.2 22.2 0 40.2-17.8 40.2-40.2 0-22-18-40-40.2-40z m0 175.6c-22.2 0-40.2 18-40.2 40.2 0 22.2 18 40.2 40.2 40.2 22.2 0 40.2-18 40.2-40.2 0-22.2-18-40.2-40.2-40.2z m87.8-87.8c-22.2 0-40.2 18-40.2 40.2 0 22.2 18 40.2 40.2 40.2 22.2 0 40.2-18 40.2-40.2 0-22.2-18-40.2-40.2-40.2z"  horiz-adv-x="1024" />

    
    <glyph glyph-name="form-pen" unicode="&#59013;" d="M921.6 759.467h-34.133V691.2H921.6a34.133 34.133 0 0 0 34.133-34.133V-25.6a34.133 34.133 0 0 0-34.133-34.133H102.4A34.133 34.133 0 0 0 68.267-25.6V657.067A34.133 34.133 0 0 0 102.4 691.2h443.733v68.267H102.4A102.4 102.4 0 0 1 0 657.067V-25.6A102.4 102.4 0 0 1 102.4-128h819.2A102.4 102.4 0 0 1 1024-25.6V657.067a102.4 102.4 0 0 1-102.4 102.4zM819.2 213.333V896H614.4v-682.667L720.896 76.8z m-136.533 23.211V827.734h68.266v-592.555l-32.085-44.374zM204.8 554.667h204.8V486.4H204.8z m0-136.534h273.067v-68.266H204.8z m0-136.533h273.067v-68.267H204.8z m0-136.533h273.067V76.8H204.8z"  horiz-adv-x="1024" />

    


  </font>
</defs>
</svg>
